<?xml version="1.0" encoding="iso-8859-1"?>
<!-- Generator: Adobe Illustrator 19.0.0, SVG Export Plug-In . SVG Version: 6.00 Build 0)  -->
<svg version="1.1" id="Capa_1" xmlns="http://www.w3.org/2000/svg" xmlns:xlink="http://www.w3.org/1999/xlink" x="0px" y="0px"
	 viewBox="0 0 511.875 511.875" style="enable-background:new 0 0 511.875 511.875;" xml:space="preserve">
<g>
	<path style="fill:#ED5564;" d="M455.888,251.937v143.964c0,17.59-14.402,31.992-31.992,31.992h-63.984h-7.998v-23.994h7.998h55.986
		c8.795,0,15.996-7.201,15.996-15.996V259.939c0-8.798-7.201-16-15.996-16h-55.986h-7.998v-23.994h7.998h63.984
		C441.486,219.945,455.888,234.34,455.888,251.937z"/>
	<path style="fill:#ED5564;" d="M295.927,147.963h55.986v71.982v23.994v159.96v23.994v31.992c0,26.385-13.606,47.988-39.99,47.988
		H103.97c-26.392,0-47.988-21.604-47.988-47.988V147.963h39.99h55.986h87.979H295.927z"/>
</g>
<g style="opacity:0.4;">
	<path style="fill:#FFFFFF;" d="M71.978,459.886V147.963H55.982v311.923c0,26.385,21.596,47.988,47.988,47.988h15.996
		C93.574,507.875,71.978,486.271,71.978,459.886z"/>
</g>
<g style="opacity:0.3;">
	<path style="fill:#3A3847;" d="M335.917,459.886V147.963h15.996v311.923c0,26.385-21.604,47.988-47.988,47.988h-15.996
		C314.313,507.875,335.917,486.271,335.917,459.886z"/>
</g>
<g style="opacity:0.3;">
	<rect x="351.917" y="219.947" style="fill:#3A3847;" width="7.998" height="23.994"/>
</g>
<g style="opacity:0.3;">
	<rect x="351.917" y="403.897" style="fill:#3A3847;" width="7.998" height="23.994"/>
</g>
<circle style="fill:#FFCE54;" cx="203.947" cy="339.917" r="87.979"/>
<g style="opacity:0.5;">
	<path style="fill:#FFFFFF;" d="M131.967,339.916c0-45.895,35.144-83.526,79.98-87.576c-2.64-0.238-5.3-0.402-7.998-0.402
		c-48.59,0-87.979,39.388-87.979,87.978s39.389,87.979,87.979,87.979c2.698,0,5.358-0.164,7.998-0.406
		C167.111,423.443,131.967,385.804,131.967,339.916z"/>
</g>
<g style="opacity:0.2;">
	<path d="M275.932,339.916c0-45.895-35.144-83.526-79.98-87.572c2.64-0.242,5.299-0.406,7.998-0.406
		c48.59,0,87.979,39.388,87.979,87.978s-39.389,87.979-87.979,87.979c-2.699,0-5.358-0.164-7.998-0.406
		C240.789,423.443,275.932,385.804,275.932,339.916z"/>
</g>
<path style="fill:#656D78;" d="M206.828,376.947l-32.152,45.91c-7.838-2.719-15.113-6.482-21.674-11.279l38.951-55.666
	l14.477,20.793L206.828,376.947z"/>
<g style="opacity:0.2;">
	<path d="M206.828,376.947l-32.152,45.91c-7.838-2.719-15.113-6.482-21.674-11.279l38.951-55.666l14.477,20.793L206.828,376.947z"/>
</g>
<path style="fill:#656D78;" d="M243.94,323.919l38.709,55.346c-14.395,28.877-44.228,48.629-78.699,48.629
	c-10.318,0-20.155-1.756-29.274-5.037l32.152-45.91L243.94,323.919z"/>
<g style="opacity:0.2;">
	<polygon style="fill:#FFFFFF;" points="188.309,426.503 222.824,376.947 251.934,335.355 243.94,323.919 206.828,376.947 
		174.675,422.857 	"/>
</g>
<g style="opacity:0.2;">
	<path d="M174.675,422.857l32.152-45.91l-0.398-0.242l-3.706-5.32l-3.894,5.562l-30.301,43.27
		C170.571,421.107,172.547,422.115,174.675,422.857z"/>
</g>
<path style="fill:#ED5565;" d="M171.958,291.927c8.799,0,15.996,7.201,15.996,15.996s-7.197,15.996-15.996,15.996
	s-15.996-7.201-15.996-15.996S163.159,291.927,171.958,291.927z"/>
<g style="opacity:0.3;">
	<path style="fill:#FFFFFF;" d="M163.959,307.923c0-7.412,5.128-13.629,11.997-15.426c-1.285-0.336-2.613-0.57-3.999-0.57
		c-8.799,0-15.996,7.201-15.996,15.996s7.197,15.996,15.996,15.996c1.386,0,2.714-0.234,3.999-0.57
		C169.087,321.554,163.959,315.328,163.959,307.923z"/>
</g>
<g style="opacity:0.2;">
	<path d="M179.682,307.923c0,7.412-5.128,13.631-11.997,15.426c1.285,0.336,2.612,0.57,3.999,0.57
		c8.799,0,15.996-7.201,15.996-15.996s-7.197-15.996-15.996-15.996c-1.387,0-2.714,0.234-3.999,0.57
		C174.554,294.294,179.682,300.519,179.682,307.923z"/>
</g>
<g>
	<path style="fill:#3A3847;" d="M311.923,511.875H103.974c-28.665,0-51.987-23.322-51.987-51.988V147.963
		c0-2.21,1.789-3.999,3.999-3.999h295.928c2.211,0,3.999,1.789,3.999,3.999v311.923C355.913,490.98,338.237,511.875,311.923,511.875
		z M59.985,151.962v307.924c0,24.252,19.733,43.99,43.989,43.99h207.949c26.563,0,35.991-23.697,35.991-43.99V151.962H59.985z"/>
	<path style="fill:#3A3847;" d="M423.896,431.894h-71.982c-2.211,0-3.999-1.789-3.999-4c0-2.209,1.788-3.998,3.999-3.998h71.982
		c15.434,0,27.993-12.561,27.993-27.994V251.937c0-15.434-12.56-27.993-27.993-27.993h-71.982c-2.211,0-3.999-1.789-3.999-3.999
		s1.788-3.999,3.999-3.999h71.982c19.847,0,35.991,16.145,35.991,35.991v143.964C459.887,415.749,443.743,431.894,423.896,431.894z"
		/>
	<path style="fill:#3A3847;" d="M415.898,407.9h-63.984c-2.211,0-3.999-1.789-3.999-4c0-2.209,1.788-3.998,3.999-3.998h63.984
		c6.615,0,11.997-5.383,11.997-11.998V259.935c0-6.615-5.382-11.997-11.997-11.997h-63.984c-2.211,0-3.999-1.789-3.999-3.999
		s1.788-3.999,3.999-3.999h63.984c11.028,0,19.995,8.971,19.995,19.995v127.969C435.893,398.933,426.926,407.9,415.898,407.9z"/>
	<path style="fill:#3A3847;" d="M199.958,119.966c-1.02,0-2.039-0.387-2.819-1.164c-1.566-1.55-1.574-4.081-0.027-5.65
		c0.875-0.887,21.174-22.054-0.359-50.77c-25.779-34.366,0.105-60.946,0.371-61.211c1.562-1.562,4.077-1.559,5.639-0.004
		c1.566,1.55,1.574,4.081,0.027,5.65c-0.875,0.887-21.174,22.054,0.359,50.769c25.779,34.367-0.105,60.946-0.371,61.211
		C201.997,119.579,200.978,119.966,199.958,119.966z"/>
	<path style="fill:#3A3847;" d="M245.283,119.966c-1.019,0-2.039-0.387-2.82-1.164c-1.565-1.55-1.573-4.081-0.027-5.646
		c0.875-0.891,21.171-22.058-0.359-50.773c-1.328-1.765-0.968-4.272,0.8-5.596c1.762-1.328,4.265-0.977,5.597,0.8
		c25.771,34.367-0.105,60.946-0.371,61.211C247.326,119.579,246.302,119.966,245.283,119.966z"/>
	<path style="fill:#3A3847;" d="M151.97,119.966c-1.02,0-2.039-0.387-2.819-1.164c-1.566-1.55-1.574-4.081-0.027-5.65
		c0.875-0.887,21.174-22.054-0.359-50.77c-1.328-1.765-0.969-4.272,0.8-5.596c1.765-1.328,4.272-0.977,5.596,0.8
		c25.779,34.367-0.105,60.946-0.371,61.211C154.009,119.579,152.99,119.966,151.97,119.966z"/>
	<path style="fill:#3A3847;" d="M239.941,191.952c-2.21,0-3.999-1.789-3.999-3.999v-40.029c0-2.21,1.789-3.999,3.999-3.999
		s3.999,1.789,3.999,3.999v40.029C243.94,190.164,242.151,191.952,239.941,191.952z"/>
	<path style="fill:#3A3847;" d="M183.955,167.942c-2.21,0-3.999-1.789-3.999-3.999v-16.02c0-2.21,1.789-3.999,3.999-3.999
		s3.999,1.789,3.999,3.999v16.02C187.954,166.154,186.165,167.942,183.955,167.942z"/>
	<path style="fill:#3A3847;" d="M295.927,239.94c-2.211,0-3.999-1.789-3.999-3.999v-88.018c0-2.21,1.788-3.999,3.999-3.999
		s3.999,1.789,3.999,3.999v88.018C299.926,238.152,298.138,239.94,295.927,239.94z"/>
	<path style="fill:#3A3847;" d="M127.968,183.954c-2.21,0-3.999-1.789-3.999-3.999v-31.992c0-2.21,1.789-3.999,3.999-3.999
		c2.21,0,3.999,1.789,3.999,3.999v31.992C131.967,182.166,130.179,183.954,127.968,183.954z"/>
	<path style="fill:#3A3847;" d="M203.946,431.894c-10.595,0-20.901-1.773-30.629-5.273c-8.212-2.85-15.859-6.834-22.678-11.816
		c-24.193-17.035-38.67-45.051-38.67-74.889c0-50.713,41.259-91.977,91.978-91.977c50.718,0,91.981,41.264,91.981,91.977
		c0,14.434-3.265,28.275-9.701,41.139C270.582,412.414,239.058,431.894,203.946,431.894z M203.946,255.937
		c-46.305,0-83.979,37.67-83.979,83.979c0,27.244,13.208,52.809,35.335,68.391c6.233,4.561,13.173,8.17,20.683,10.77
		c8.9,3.203,18.292,4.82,27.962,4.82c32.059,0,60.849-17.785,75.126-46.418c5.882-11.748,8.857-24.385,8.857-37.562
		C287.929,293.607,250.254,255.937,203.946,255.937z"/>
	<path style="fill:#3A3847;" d="M152.994,415.578c-0.793,0-1.59-0.234-2.289-0.727c-1.808-1.266-2.249-3.758-0.984-5.568
		l38.952-55.666c1.261-1.812,3.761-2.242,5.568-0.984c1.809,1.273,2.25,3.764,0.984,5.576l-38.951,55.666
		C155.497,414.984,154.254,415.578,152.994,415.578z"/>
	<path style="fill:#3A3847;" d="M206.429,380.703c-1.265,0-2.507-0.602-3.284-1.711l-14.477-20.791
		c-1.266-1.812-0.816-4.311,0.996-5.568c1.812-1.266,4.304-0.805,5.565,0.992l14.477,20.791c1.265,1.812,0.816,4.311-0.996,5.568
		C208.015,380.468,207.218,380.703,206.429,380.703z"/>
	<path style="fill:#3A3847;" d="M174.667,426.855c-0.792,0-1.593-0.234-2.288-0.725c-1.812-1.266-2.25-3.758-0.984-5.57
		l69.265-98.936c1.265-1.805,3.753-2.258,5.568-0.977c1.809,1.266,2.25,3.756,0.984,5.568l-69.264,98.938
		C177.171,426.261,175.929,426.855,174.667,426.855z"/>
	<path style="fill:#3A3847;" d="M282.649,383.265c-1.257,0-2.499-0.594-3.28-1.711l-38.709-55.346
		c-1.266-1.805-0.824-4.295,0.984-5.568c1.808-1.25,4.308-0.828,5.569,0.992l38.717,55.346c1.266,1.803,0.82,4.295-0.991,5.568
		C284.243,383.031,283.446,383.265,282.649,383.265z"/>
	<path style="fill:#3A3847;" d="M171.954,327.919c-11.024,0-19.995-8.967-19.995-19.996c0-11.027,8.971-19.994,19.995-19.994
		s19.995,8.967,19.995,19.994C191.949,318.953,182.978,327.919,171.954,327.919z M171.954,295.927
		c-6.616,0-11.997,5.381-11.997,11.996s5.381,11.998,11.997,11.998c6.615,0,11.997-5.383,11.997-11.998
		S178.569,295.927,171.954,295.927z"/>
</g>
<g>
</g>
<g>
</g>
<g>
</g>
<g>
</g>
<g>
</g>
<g>
</g>
<g>
</g>
<g>
</g>
<g>
</g>
<g>
</g>
<g>
</g>
<g>
</g>
<g>
</g>
<g>
</g>
<g>
</g>
</svg>
